<?xml version="1.0" encoding="UTF-8" standalone="no"?>
<!DOCTYPE svg PUBLIC "-//W3C//DTD SVG 1.1//EN"
 "http://www.w3.org/Graphics/SVG/1.1/DTD/svg11.dtd">
<!-- Generated by graphviz version 2.49.0 (20210828.1703)
 -->
<!-- Title: /mnt/Volume_3/Gentoo/projects/Cplus/SymbolFinder/src/DriverWidgets/argumentslineedit.cpp Pages: 1 -->
<svg width="530pt" height="173pt"
 viewBox="0.00 0.00 530.00 173.00" xmlns="http://www.w3.org/2000/svg" xmlns:xlink="http://www.w3.org/1999/xlink">
<g id="graph0" class="graph" transform="scale(1 1) rotate(0) translate(4 169)">
<title>/mnt/Volume_3/Gentoo/projects/Cplus/SymbolFinder/src/DriverWidgets/argumentslineedit.cpp</title>
<polygon fill="white" stroke="transparent" points="-4,4 -4,-169 526,-169 526,4 -4,4"/>
<!-- Node1 -->
<g id="node1" class="node">
<title>Node1</title>
<g id="a_node1"><a xlink:title=" ">
<polygon fill="#bfbfbf" stroke="black" points="167.5,-123.5 167.5,-164.5 364.5,-164.5 364.5,-123.5 167.5,-123.5"/>
<text text-anchor="start" x="175.5" y="-152.5" font-family="Helvetica,sans-Serif" font-size="10.00">/mnt/Volume_3/Gentoo</text>
<text text-anchor="start" x="175.5" y="-141.5" font-family="Helvetica,sans-Serif" font-size="10.00">/projects/Cplus/SymbolFinder</text>
<text text-anchor="middle" x="266" y="-130.5" font-family="Helvetica,sans-Serif" font-size="10.00">/src/DriverWidgets/argumentslineedit.cpp</text>
</a>
</g>
</g>
<!-- Node2 -->
<g id="node2" class="node">
<title>Node2</title>
<g id="a_node2"><a xlink:href="argumentslineedit_8hpp.html" target="_top" xlink:title=" ">
<polygon fill="white" stroke="black" points="0,-62 0,-81 112,-81 112,-62 0,-62"/>
<text text-anchor="middle" x="56" y="-69" font-family="Helvetica,sans-Serif" font-size="10.00">argumentslineedit.hpp</text>
</a>
</g>
</g>
<!-- Node1&#45;&gt;Node2 -->
<g id="edge1" class="edge">
<title>Node1&#45;&gt;Node2</title>
<path fill="none" stroke="midnightblue" d="M207.78,-123.46C170.32,-110.88 122.88,-94.95 91.09,-84.28"/>
<polygon fill="midnightblue" stroke="midnightblue" points="91.95,-80.88 81.36,-81.01 89.72,-87.51 91.95,-80.88"/>
</g>
<!-- Node4 -->
<g id="node4" class="node">
<title>Node4</title>
<g id="a_node4"><a xlink:title=" ">
<polygon fill="white" stroke="#bfbfbf" points="130,-62 130,-81 186,-81 186,-62 130,-62"/>
<text text-anchor="middle" x="158" y="-69" font-family="Helvetica,sans-Serif" font-size="10.00">qdebug.h</text>
</a>
</g>
</g>
<!-- Node1&#45;&gt;Node4 -->
<g id="edge3" class="edge">
<title>Node1&#45;&gt;Node4</title>
<path fill="none" stroke="midnightblue" d="M235.92,-123.36C218.18,-111.78 196.12,-97.39 180.01,-86.87"/>
<polygon fill="midnightblue" stroke="midnightblue" points="181.57,-83.71 171.29,-81.17 177.75,-89.57 181.57,-83.71"/>
</g>
<!-- Node5 -->
<g id="node5" class="node">
<title>Node5</title>
<g id="a_node5"><a xlink:title=" ">
<polygon fill="white" stroke="#bfbfbf" points="204,-62 204,-81 258,-81 258,-62 204,-62"/>
<text text-anchor="middle" x="231" y="-69" font-family="Helvetica,sans-Serif" font-size="10.00">qevent.h</text>
</a>
</g>
</g>
<!-- Node1&#45;&gt;Node5 -->
<g id="edge4" class="edge">
<title>Node1&#45;&gt;Node5</title>
<path fill="none" stroke="midnightblue" d="M256.25,-123.36C251.09,-112.97 244.81,-100.32 239.8,-90.23"/>
<polygon fill="midnightblue" stroke="midnightblue" points="242.89,-88.57 235.31,-81.17 236.62,-91.69 242.89,-88.57"/>
</g>
<!-- Node6 -->
<g id="node6" class="node">
<title>Node6</title>
<g id="a_node6"><a xlink:title=" ">
<polygon fill="white" stroke="#bfbfbf" points="276,-62 276,-81 328,-81 328,-62 276,-62"/>
<text text-anchor="middle" x="302" y="-69" font-family="Helvetica,sans-Serif" font-size="10.00">qtimer.h</text>
</a>
</g>
</g>
<!-- Node1&#45;&gt;Node6 -->
<g id="edge5" class="edge">
<title>Node1&#45;&gt;Node6</title>
<path fill="none" stroke="midnightblue" d="M276.03,-123.36C281.33,-112.97 287.8,-100.32 292.95,-90.23"/>
<polygon fill="midnightblue" stroke="midnightblue" points="296.14,-91.67 297.57,-81.17 289.91,-88.49 296.14,-91.67"/>
</g>
<!-- Node7 -->
<g id="node7" class="node">
<title>Node7</title>
<g id="a_node7"><a xlink:title=" ">
<polygon fill="white" stroke="#bfbfbf" points="346,-62 346,-81 402,-81 402,-62 346,-62"/>
<text text-anchor="middle" x="374" y="-69" font-family="Helvetica,sans-Serif" font-size="10.00">qtooltip.h</text>
</a>
</g>
</g>
<!-- Node1&#45;&gt;Node7 -->
<g id="edge6" class="edge">
<title>Node1&#45;&gt;Node7</title>
<path fill="none" stroke="midnightblue" d="M296.08,-123.36C313.82,-111.78 335.88,-97.39 351.99,-86.87"/>
<polygon fill="midnightblue" stroke="midnightblue" points="354.25,-89.57 360.71,-81.17 350.43,-83.71 354.25,-89.57"/>
</g>
<!-- Node8 -->
<g id="node8" class="node">
<title>Node8</title>
<g id="a_node8"><a xlink:href="connectverifier_8hpp.html" target="_top" xlink:title=" ">
<polygon fill="white" stroke="black" points="420,-56.5 420,-86.5 522,-86.5 522,-56.5 420,-56.5"/>
<text text-anchor="start" x="428" y="-74.5" font-family="Helvetica,sans-Serif" font-size="10.00">../ConnectVerifier</text>
<text text-anchor="middle" x="471" y="-63.5" font-family="Helvetica,sans-Serif" font-size="10.00">/connectverifier.hpp</text>
</a>
</g>
</g>
<!-- Node1&#45;&gt;Node8 -->
<g id="edge7" class="edge">
<title>Node1&#45;&gt;Node8</title>
<path fill="none" stroke="midnightblue" d="M322.83,-123.46C353.39,-112.95 390.74,-100.1 420.3,-89.93"/>
<polygon fill="midnightblue" stroke="midnightblue" points="421.69,-93.16 430.01,-86.6 419.41,-86.54 421.69,-93.16"/>
</g>
<!-- Node3 -->
<g id="node3" class="node">
<title>Node3</title>
<g id="a_node3"><a xlink:title=" ">
<polygon fill="white" stroke="#bfbfbf" points="25.5,-0.5 25.5,-19.5 86.5,-19.5 86.5,-0.5 25.5,-0.5"/>
<text text-anchor="middle" x="56" y="-7.5" font-family="Helvetica,sans-Serif" font-size="10.00">qlineedit.h</text>
</a>
</g>
</g>
<!-- Node2&#45;&gt;Node3 -->
<g id="edge2" class="edge">
<title>Node2&#45;&gt;Node3</title>
<path fill="none" stroke="midnightblue" d="M56,-61.98C56,-53.58 56,-40.48 56,-29.66"/>
<polygon fill="midnightblue" stroke="midnightblue" points="59.5,-29.51 56,-19.51 52.5,-29.51 59.5,-29.51"/>
</g>
</g>
</svg>
