<?xml version="1.0" encoding="UTF-8" standalone="no"?>
<!DOCTYPE svg PUBLIC "-//W3C//DTD SVG 1.1//EN"
 "http://www.w3.org/Graphics/SVG/1.1/DTD/svg11.dtd">
<!-- Generated by graphviz version 2.49.0 (20210828.1703)
 -->
<!-- Title: IDriver Pages: 1 -->
<svg width="114pt" height="281pt"
 viewBox="0.00 0.00 114.00 281.00" xmlns="http://www.w3.org/2000/svg" xmlns:xlink="http://www.w3.org/1999/xlink">
<g id="graph0" class="graph" transform="scale(1 1) rotate(0) translate(4 277)">
<title>IDriver</title>
<polygon fill="white" stroke="transparent" points="-4,4 -4,-277 110,-277 110,4 -4,4"/>
<!-- Node1 -->
<g id="node1" class="node">
<title>Node1</title>
<g id="a_node1"><a xlink:title="IDriver serves as an interface for NmDriver and ScanelfDriver">
<polygon fill="#bfbfbf" stroke="black" points="0,-0.5 0,-178.5 106,-178.5 106,-0.5 0,-0.5"/>
<text text-anchor="middle" x="53" y="-166.5" font-family="Helvetica,sans-Serif" font-size="10.00">IDriver</text>
<polyline fill="none" stroke="black" points="0,-159.5 106,-159.5 "/>
<text text-anchor="middle" x="53" y="-147.5" font-family="Helvetica,sans-Serif" font-size="10.00"> </text>
<polyline fill="none" stroke="black" points="0,-140.5 106,-140.5 "/>
<text text-anchor="start" x="8" y="-128.5" font-family="Helvetica,sans-Serif" font-size="10.00">+ IDriver()</text>
<text text-anchor="start" x="8" y="-117.5" font-family="Helvetica,sans-Serif" font-size="10.00">+ ~IDriver()</text>
<text text-anchor="start" x="8" y="-106.5" font-family="Helvetica,sans-Serif" font-size="10.00">+ driverName()</text>
<text text-anchor="start" x="8" y="-95.5" font-family="Helvetica,sans-Serif" font-size="10.00">+ defaultInvocation()</text>
<text text-anchor="start" x="8" y="-84.5" font-family="Helvetica,sans-Serif" font-size="10.00">+ setInvocation()</text>
<text text-anchor="start" x="8" y="-73.5" font-family="Helvetica,sans-Serif" font-size="10.00">+ invocation()</text>
<text text-anchor="start" x="8" y="-62.5" font-family="Helvetica,sans-Serif" font-size="10.00">+ exec()</text>
<text text-anchor="start" x="8" y="-51.5" font-family="Helvetica,sans-Serif" font-size="10.00">+ exec()</text>
<text text-anchor="start" x="8" y="-40.5" font-family="Helvetica,sans-Serif" font-size="10.00">+ symbolName()</text>
<text text-anchor="start" x="8" y="-29.5" font-family="Helvetica,sans-Serif" font-size="10.00">+ setSymbolName()</text>
<text text-anchor="start" x="8" y="-18.5" font-family="Helvetica,sans-Serif" font-size="10.00">+ isSymbolInArgs()</text>
<text text-anchor="start" x="8" y="-7.5" font-family="Helvetica,sans-Serif" font-size="10.00">+ stopString()</text>
</a>
</g>
</g>
<!-- Node2 -->
<g id="node2" class="node">
<title>Node2</title>
<g id="a_node2"><a xlink:title=" ">
<polygon fill="white" stroke="#bfbfbf" points="23,-215.5 23,-272.5 83,-272.5 83,-215.5 23,-215.5"/>
<text text-anchor="middle" x="53" y="-260.5" font-family="Helvetica,sans-Serif" font-size="10.00">QProcess</text>
<polyline fill="none" stroke="#bfbfbf" points="23,-253.5 83,-253.5 "/>
<text text-anchor="middle" x="53" y="-241.5" font-family="Helvetica,sans-Serif" font-size="10.00"> </text>
<polyline fill="none" stroke="#bfbfbf" points="23,-234.5 83,-234.5 "/>
<text text-anchor="middle" x="53" y="-222.5" font-family="Helvetica,sans-Serif" font-size="10.00"> </text>
</a>
</g>
</g>
<!-- Node2&#45;&gt;Node1 -->
<g id="edge1" class="edge">
<title>Node2&#45;&gt;Node1</title>
<path fill="none" stroke="midnightblue" d="M53,-205.37C53,-197.09 53,-187.98 53,-178.62"/>
<polygon fill="none" stroke="midnightblue" points="49.5,-205.38 53,-215.38 56.5,-205.38 49.5,-205.38"/>
</g>
</g>
</svg>
