<?xml version="1.0" encoding="UTF-8" standalone="no"?>
<!DOCTYPE svg PUBLIC "-//W3C//DTD SVG 1.1//EN"
 "http://www.w3.org/Graphics/SVG/1.1/DTD/svg11.dtd">
<!-- Generated by graphviz version 2.49.0 (20210828.1703)
 -->
<!-- Title: IDriver Pages: 1 -->
<svg width="115pt" height="562pt"
 viewBox="0.00 0.00 115.00 562.00" xmlns="http://www.w3.org/2000/svg" xmlns:xlink="http://www.w3.org/1999/xlink">
<g id="graph0" class="graph" transform="scale(1 1) rotate(0) translate(4 558)">
<title>IDriver</title>
<polygon fill="white" stroke="transparent" points="-4,4 -4,-558 111,-558 111,4 -4,4"/>
<!-- Node1 -->
<g id="node1" class="node">
<title>Node1</title>
<g id="a_node1"><a xlink:title="IDriver serves as an interface for NmDriver and ScanelfDriver">
<polygon fill="#bfbfbf" stroke="black" points="0.5,-281.5 0.5,-459.5 106.5,-459.5 106.5,-281.5 0.5,-281.5"/>
<text text-anchor="middle" x="53.5" y="-447.5" font-family="Helvetica,sans-Serif" font-size="10.00">IDriver</text>
<polyline fill="none" stroke="black" points="0.5,-440.5 106.5,-440.5 "/>
<text text-anchor="middle" x="53.5" y="-428.5" font-family="Helvetica,sans-Serif" font-size="10.00"> </text>
<polyline fill="none" stroke="black" points="0.5,-421.5 106.5,-421.5 "/>
<text text-anchor="start" x="8.5" y="-409.5" font-family="Helvetica,sans-Serif" font-size="10.00">+ IDriver()</text>
<text text-anchor="start" x="8.5" y="-398.5" font-family="Helvetica,sans-Serif" font-size="10.00">+ ~IDriver()</text>
<text text-anchor="start" x="8.5" y="-387.5" font-family="Helvetica,sans-Serif" font-size="10.00">+ driverName()</text>
<text text-anchor="start" x="8.5" y="-376.5" font-family="Helvetica,sans-Serif" font-size="10.00">+ defaultInvocation()</text>
<text text-anchor="start" x="8.5" y="-365.5" font-family="Helvetica,sans-Serif" font-size="10.00">+ setInvocation()</text>
<text text-anchor="start" x="8.5" y="-354.5" font-family="Helvetica,sans-Serif" font-size="10.00">+ invocation()</text>
<text text-anchor="start" x="8.5" y="-343.5" font-family="Helvetica,sans-Serif" font-size="10.00">+ exec()</text>
<text text-anchor="start" x="8.5" y="-332.5" font-family="Helvetica,sans-Serif" font-size="10.00">+ exec()</text>
<text text-anchor="start" x="8.5" y="-321.5" font-family="Helvetica,sans-Serif" font-size="10.00">+ symbolName()</text>
<text text-anchor="start" x="8.5" y="-310.5" font-family="Helvetica,sans-Serif" font-size="10.00">+ setSymbolName()</text>
<text text-anchor="start" x="8.5" y="-299.5" font-family="Helvetica,sans-Serif" font-size="10.00">+ isSymbolInArgs()</text>
<text text-anchor="start" x="8.5" y="-288.5" font-family="Helvetica,sans-Serif" font-size="10.00">+ stopString()</text>
</a>
</g>
</g>
<!-- Node3 -->
<g id="node3" class="node">
<title>Node3</title>
<g id="a_node3"><a xlink:href="class_nm_driver.html" target="_top" xlink:title="NmDriver inherits from IDriver and acts as a driver for /usr/bin/nm.">
<polygon fill="white" stroke="black" points="0,-0.5 0,-244.5 107,-244.5 107,-0.5 0,-0.5"/>
<text text-anchor="middle" x="53.5" y="-232.5" font-family="Helvetica,sans-Serif" font-size="10.00">NmDriver</text>
<polyline fill="none" stroke="black" points="0,-225.5 107,-225.5 "/>
<text text-anchor="start" x="8" y="-213.5" font-family="Helvetica,sans-Serif" font-size="10.00">&#45; m_program</text>
<text text-anchor="start" x="8" y="-202.5" font-family="Helvetica,sans-Serif" font-size="10.00">&#45; m_defArgList</text>
<text text-anchor="start" x="8" y="-191.5" font-family="Helvetica,sans-Serif" font-size="10.00">&#45; m_effectiveArgList</text>
<text text-anchor="start" x="8" y="-180.5" font-family="Helvetica,sans-Serif" font-size="10.00">&#45; m_argList</text>
<text text-anchor="start" x="8" y="-169.5" font-family="Helvetica,sans-Serif" font-size="10.00">&#45; m_symbol</text>
<polyline fill="none" stroke="black" points="0,-162.5 107,-162.5 "/>
<text text-anchor="start" x="8" y="-150.5" font-family="Helvetica,sans-Serif" font-size="10.00">+ NmDriver()</text>
<text text-anchor="start" x="8" y="-139.5" font-family="Helvetica,sans-Serif" font-size="10.00">+ ~NmDriver()</text>
<text text-anchor="start" x="8" y="-128.5" font-family="Helvetica,sans-Serif" font-size="10.00">+ driverName()</text>
<text text-anchor="start" x="8" y="-117.5" font-family="Helvetica,sans-Serif" font-size="10.00">+ defaultInvocation()</text>
<text text-anchor="start" x="8" y="-106.5" font-family="Helvetica,sans-Serif" font-size="10.00">+ invocation()</text>
<text text-anchor="start" x="8" y="-95.5" font-family="Helvetica,sans-Serif" font-size="10.00">+ setInvocation()</text>
<text text-anchor="start" x="8" y="-84.5" font-family="Helvetica,sans-Serif" font-size="10.00">+ exec()</text>
<text text-anchor="start" x="8" y="-73.5" font-family="Helvetica,sans-Serif" font-size="10.00">+ exec()</text>
<text text-anchor="start" x="8" y="-62.5" font-family="Helvetica,sans-Serif" font-size="10.00">+ symbolName()</text>
<text text-anchor="start" x="8" y="-51.5" font-family="Helvetica,sans-Serif" font-size="10.00">+ setSymbolName()</text>
<text text-anchor="start" x="8" y="-40.5" font-family="Helvetica,sans-Serif" font-size="10.00">+ isSymbolInArgs()</text>
<text text-anchor="start" x="8" y="-29.5" font-family="Helvetica,sans-Serif" font-size="10.00">+ stopString()</text>
<text text-anchor="start" x="8" y="-18.5" font-family="Helvetica,sans-Serif" font-size="10.00">+ stDriverName()</text>
<text text-anchor="start" x="8" y="-7.5" font-family="Helvetica,sans-Serif" font-size="10.00">&#45; setupConnections()</text>
</a>
</g>
</g>
<!-- Node1&#45;&gt;Node3 -->
<g id="edge2" class="edge">
<title>Node1&#45;&gt;Node3</title>
<path fill="none" stroke="midnightblue" d="M53.5,-271.28C53.5,-262.59 53.5,-253.74 53.5,-244.89"/>
<polygon fill="none" stroke="midnightblue" points="50,-271.38 53.5,-281.38 57,-271.38 50,-271.38"/>
</g>
<!-- Node2 -->
<g id="node2" class="node">
<title>Node2</title>
<g id="a_node2"><a xlink:title=" ">
<polygon fill="white" stroke="#bfbfbf" points="23.5,-496.5 23.5,-553.5 83.5,-553.5 83.5,-496.5 23.5,-496.5"/>
<text text-anchor="middle" x="53.5" y="-541.5" font-family="Helvetica,sans-Serif" font-size="10.00">QProcess</text>
<polyline fill="none" stroke="#bfbfbf" points="23.5,-534.5 83.5,-534.5 "/>
<text text-anchor="middle" x="53.5" y="-522.5" font-family="Helvetica,sans-Serif" font-size="10.00"> </text>
<polyline fill="none" stroke="#bfbfbf" points="23.5,-515.5 83.5,-515.5 "/>
<text text-anchor="middle" x="53.5" y="-503.5" font-family="Helvetica,sans-Serif" font-size="10.00"> </text>
</a>
</g>
</g>
<!-- Node2&#45;&gt;Node1 -->
<g id="edge1" class="edge">
<title>Node2&#45;&gt;Node1</title>
<path fill="none" stroke="midnightblue" d="M53.5,-486.37C53.5,-478.09 53.5,-468.98 53.5,-459.62"/>
<polygon fill="none" stroke="midnightblue" points="50,-486.38 53.5,-496.38 57,-486.38 50,-486.38"/>
</g>
</g>
</svg>
