<?xml version="1.0" encoding="UTF-8" standalone="no"?>
<!DOCTYPE svg PUBLIC "-//W3C//DTD SVG 1.1//EN"
 "http://www.w3.org/Graphics/SVG/1.1/DTD/svg11.dtd">
<!-- Generated by graphviz version 2.49.0 (20210828.1703)
 -->
<!-- Title: MainWindow Pages: 1 -->
<svg width="246pt" height="452pt"
 viewBox="0.00 0.00 245.50 452.00" xmlns="http://www.w3.org/2000/svg" xmlns:xlink="http://www.w3.org/1999/xlink">
<g id="graph0" class="graph" transform="scale(1 1) rotate(0) translate(4 448)">
<title>MainWindow</title>
<polygon fill="white" stroke="transparent" points="-4,4 -4,-448 241.5,-448 241.5,4 -4,4"/>
<!-- Node1 -->
<g id="node1" class="node">
<title>Node1</title>
<g id="a_node1"><a xlink:title="Main window for this program.">
<polygon fill="#bfbfbf" stroke="black" points="0,-0.5 0,-233.5 169,-233.5 169,-0.5 0,-0.5"/>
<text text-anchor="middle" x="84.5" y="-221.5" font-family="Helvetica,sans-Serif" font-size="10.00">MainWindow</text>
<polyline fill="none" stroke="black" points="0,-214.5 169,-214.5 "/>
<text text-anchor="start" x="8" y="-202.5" font-family="Helvetica,sans-Serif" font-size="10.00">&#45; m_scanner</text>
<text text-anchor="start" x="8" y="-191.5" font-family="Helvetica,sans-Serif" font-size="10.00">&#45; m_lineEditDefaultArgs</text>
<polyline fill="none" stroke="black" points="0,-184.5 169,-184.5 "/>
<text text-anchor="start" x="8" y="-172.5" font-family="Helvetica,sans-Serif" font-size="10.00">+ MainWindow()</text>
<text text-anchor="start" x="8" y="-161.5" font-family="Helvetica,sans-Serif" font-size="10.00">+ ~MainWindow()</text>
<text text-anchor="start" x="8" y="-150.5" font-family="Helvetica,sans-Serif" font-size="10.00">+ initializeScanner()</text>
<text text-anchor="start" x="8" y="-139.5" font-family="Helvetica,sans-Serif" font-size="10.00">+ unblockHelper()</text>
<text text-anchor="start" x="8" y="-128.5" font-family="Helvetica,sans-Serif" font-size="10.00">+ hideErrorToolBox()</text>
<text text-anchor="start" x="8" y="-117.5" font-family="Helvetica,sans-Serif" font-size="10.00">+ showErrorToolBox()</text>
<text text-anchor="start" x="8" y="-106.5" font-family="Helvetica,sans-Serif" font-size="10.00">+ enableAdvancedArgs()</text>
<text text-anchor="start" x="8" y="-95.5" font-family="Helvetica,sans-Serif" font-size="10.00">+ updateStdOutputSlot()</text>
<text text-anchor="start" x="8" y="-84.5" font-family="Helvetica,sans-Serif" font-size="10.00">+ updateStdErrorSlot()</text>
<text text-anchor="start" x="8" y="-73.5" font-family="Helvetica,sans-Serif" font-size="10.00">+ updateSymbolSlot()</text>
<text text-anchor="start" x="8" y="-62.5" font-family="Helvetica,sans-Serif" font-size="10.00">+ updateAdvancedArgumentsSlot()</text>
<text text-anchor="start" x="8" y="-51.5" font-family="Helvetica,sans-Serif" font-size="10.00">+ unblockAdvancedArguments</text>
<text text-anchor="start" x="8" y="-40.5" font-family="Helvetica,sans-Serif" font-size="10.00">Slot()</text>
<text text-anchor="start" x="8" y="-29.5" font-family="Helvetica,sans-Serif" font-size="10.00">+ setInvocationSlot()</text>
<text text-anchor="start" x="8" y="-18.5" font-family="Helvetica,sans-Serif" font-size="10.00">&#45; setupConnections()</text>
<text text-anchor="start" x="8" y="-7.5" font-family="Helvetica,sans-Serif" font-size="10.00">&#45; setupWidgets()</text>
</a>
</g>
</g>
<!-- Node2 -->
<g id="node2" class="node">
<title>Node2</title>
<g id="a_node2"><a xlink:title=" ">
<polygon fill="white" stroke="#bfbfbf" points="5.5,-281.5 5.5,-338.5 85.5,-338.5 85.5,-281.5 5.5,-281.5"/>
<text text-anchor="middle" x="45.5" y="-326.5" font-family="Helvetica,sans-Serif" font-size="10.00">QMainWindow</text>
<polyline fill="none" stroke="#bfbfbf" points="5.5,-319.5 85.5,-319.5 "/>
<text text-anchor="middle" x="45.5" y="-307.5" font-family="Helvetica,sans-Serif" font-size="10.00"> </text>
<polyline fill="none" stroke="#bfbfbf" points="5.5,-300.5 85.5,-300.5 "/>
<text text-anchor="middle" x="45.5" y="-288.5" font-family="Helvetica,sans-Serif" font-size="10.00"> </text>
</a>
</g>
</g>
<!-- Node2&#45;&gt;Node1 -->
<g id="edge1" class="edge">
<title>Node2&#45;&gt;Node1</title>
<path fill="none" stroke="midnightblue" d="M53.24,-271.1C55.51,-259.96 58.13,-247.15 60.86,-233.79"/>
<polygon fill="none" stroke="midnightblue" points="49.74,-270.73 51.17,-281.23 56.6,-272.13 49.74,-270.73"/>
</g>
<!-- Node3 -->
<g id="node3" class="node">
<title>Node3</title>
<g id="a_node3"><a xlink:title=" ">
<polygon fill="white" stroke="#bfbfbf" points="103.5,-281.5 103.5,-338.5 237.5,-338.5 237.5,-281.5 103.5,-281.5"/>
<text text-anchor="middle" x="170.5" y="-326.5" font-family="Helvetica,sans-Serif" font-size="10.00">std::unique_ptr&lt; Window &gt;</text>
<polyline fill="none" stroke="#bfbfbf" points="103.5,-319.5 237.5,-319.5 "/>
<text text-anchor="start" x="111.5" y="-307.5" font-family="Helvetica,sans-Serif" font-size="10.00">+ ptr</text>
<polyline fill="none" stroke="#bfbfbf" points="103.5,-300.5 237.5,-300.5 "/>
<text text-anchor="start" x="111.5" y="-288.5" font-family="Helvetica,sans-Serif" font-size="10.00">+ operator&#45;&gt;()</text>
</a>
</g>
</g>
<!-- Node3&#45;&gt;Node1 -->
<g id="edge2" class="edge">
<title>Node3&#45;&gt;Node1</title>
<path fill="none" stroke="#404040" d="M157.99,-281.23C153.33,-270.86 147.67,-258.3 141.59,-244.8"/>
<polygon fill="none" stroke="#404040" points="141.56,-244.73 135.45,-240.9 136.64,-233.79 142.75,-237.62 141.56,-244.73"/>
<text text-anchor="middle" x="163.5" y="-255" font-family="Helvetica,sans-Serif" font-size="10.00"> &#45;m_ui</text>
</g>
<!-- Node4 -->
<g id="node4" class="node">
<title>Node4</title>
<g id="a_node4"><a xlink:title=" ">
<polygon fill="white" stroke="#bfbfbf" points="118.5,-386.5 118.5,-443.5 222.5,-443.5 222.5,-386.5 118.5,-386.5"/>
<text text-anchor="middle" x="170.5" y="-431.5" font-family="Helvetica,sans-Serif" font-size="10.00">std::unique_ptr&lt; T &gt;</text>
<polyline fill="none" stroke="#bfbfbf" points="118.5,-424.5 222.5,-424.5 "/>
<text text-anchor="middle" x="170.5" y="-412.5" font-family="Helvetica,sans-Serif" font-size="10.00"> </text>
<polyline fill="none" stroke="#bfbfbf" points="118.5,-405.5 222.5,-405.5 "/>
<text text-anchor="start" x="126.5" y="-393.5" font-family="Helvetica,sans-Serif" font-size="10.00">+ operator&#45;&gt;()</text>
</a>
</g>
</g>
<!-- Node4&#45;&gt;Node3 -->
<g id="edge3" class="edge">
<title>Node4&#45;&gt;Node3</title>
<path fill="none" stroke="orange" d="M170.5,-376.29C170.5,-363.84 170.5,-350.23 170.5,-338.68"/>
<polygon fill="orange" stroke="orange" points="167,-376.4 170.5,-386.4 174,-376.4 167,-376.4"/>
<text text-anchor="middle" x="199" y="-360" font-family="Helvetica,sans-Serif" font-size="10.00"> &lt; Window &gt;</text>
</g>
</g>
</svg>
