<?xml version="1.0" encoding="UTF-8" standalone="no"?>
<!DOCTYPE svg PUBLIC "-//W3C//DTD SVG 1.1//EN"
 "http://www.w3.org/Graphics/SVG/1.1/DTD/svg11.dtd">
<!-- Generated by graphviz version 2.49.0 (20210828.1703)
 -->
<!-- Title: /mnt/Volume_3/Gentoo/projects/Cplus/SymbolFinder/src Pages: 1 -->
<svg width="124pt" height="220pt"
 viewBox="0.00 0.00 124.00 220.00" xmlns="http://www.w3.org/2000/svg" xmlns:xlink="http://www.w3.org/1999/xlink">
<g id="graph0" class="graph" transform="scale(1 1) rotate(0) translate(4 216)">
<title>/mnt/Volume_3/Gentoo/projects/Cplus/SymbolFinder/src</title>
<polygon fill="white" stroke="transparent" points="-4,4 -4,-216 120,-216 120,4 -4,4"/>
<g id="clust1" class="cluster">
<title>clusterdir_68267d1309a1af8e8297ef4c3efbcdba</title>
<g id="a_clust1"><a xlink:href="dir_68267d1309a1af8e8297ef4c3efbcdba.html" target="_top">
<polygon fill="#eeeeff" stroke="black" points="8,-8 8,-204 108,-204 108,-8 8,-8"/>
</a>
</g>
</g>
<!-- dir_68267d1309a1af8e8297ef4c3efbcdba -->
<g id="node1" class="node">
<title>dir_68267d1309a1af8e8297ef4c3efbcdba</title>
<text text-anchor="middle" x="58" y="-175.5" font-family="Helvetica,sans-Serif" font-size="10.00">src</text>
</g>
<!-- dir_72166f3cf3753fd169cf05996377a7f8 -->
<g id="node3" class="node">
<title>dir_72166f3cf3753fd169cf05996377a7f8</title>
<g id="a_node3"><a xlink:href="dir_72166f3cf3753fd169cf05996377a7f8.html" target="_top" xlink:title="DriverWidgets">
<polygon fill="white" stroke="black" points="97.5,-124 18.5,-124 18.5,-88 97.5,-88 97.5,-124"/>
<text text-anchor="middle" x="58" y="-103.5" font-family="Helvetica,sans-Serif" font-size="10.00">DriverWidgets</text>
</a>
</g>
</g>
<!-- dir_68267d1309a1af8e8297ef4c3efbcdba&#45;&gt;dir_72166f3cf3753fd169cf05996377a7f8 -->
<g id="edge1" class="edge">
<title>dir_68267d1309a1af8e8297ef4c3efbcdba&#45;&gt;dir_72166f3cf3753fd169cf05996377a7f8</title>
<path fill="none" stroke="black" d="M58,-159.7C58,-151.98 58,-142.71 58,-134.11"/>
<polygon fill="black" stroke="black" points="61.5,-134.1 58,-124.1 54.5,-134.1 61.5,-134.1"/>
<g id="a_edge1&#45;headlabel"><a xlink:href="dir_000000_000002.html" target="_top" xlink:title="2">
<text text-anchor="middle" x="64.34" y="-135.2" font-family="Helvetica,sans-Serif" font-size="10.00">2</text>
</a>
</g>
</g>
<!-- dir_c4ecdb9bd7dd9d86ff2814564f006f10 -->
<g id="node2" class="node">
<title>dir_c4ecdb9bd7dd9d86ff2814564f006f10</title>
<g id="a_node2"><a xlink:href="dir_c4ecdb9bd7dd9d86ff2814564f006f10.html" target="_top" xlink:title="ConnectVerifier">
<polygon fill="white" stroke="black" points="99.5,-52 16.5,-52 16.5,-16 99.5,-16 99.5,-52"/>
<text text-anchor="middle" x="58" y="-31.5" font-family="Helvetica,sans-Serif" font-size="10.00">ConnectVerifier</text>
</a>
</g>
</g>
<!-- dir_72166f3cf3753fd169cf05996377a7f8&#45;&gt;dir_c4ecdb9bd7dd9d86ff2814564f006f10 -->
<g id="edge2" class="edge">
<title>dir_72166f3cf3753fd169cf05996377a7f8&#45;&gt;dir_c4ecdb9bd7dd9d86ff2814564f006f10</title>
<path fill="none" stroke="black" d="M58,-87.7C58,-79.98 58,-70.71 58,-62.11"/>
<polygon fill="black" stroke="black" points="61.5,-62.1 58,-52.1 54.5,-62.1 61.5,-62.1"/>
<g id="a_edge2&#45;headlabel"><a xlink:href="dir_000002_000001.html" target="_top" xlink:title="1">
<text text-anchor="middle" x="64.34" y="-63.2" font-family="Helvetica,sans-Serif" font-size="10.00">1</text>
</a>
</g>
</g>
</g>
</svg>
