<?xml version="1.0" encoding="UTF-8" standalone="no"?>
<!DOCTYPE svg PUBLIC "-//W3C//DTD SVG 1.1//EN"
 "http://www.w3.org/Graphics/SVG/1.1/DTD/svg11.dtd">
<!-- Generated by graphviz version 2.49.0 (20210828.1703)
 -->
<!-- Title: /mnt/Volume_3/Gentoo/projects/Cplus/SymbolFinder/src/findermainwindow.cpp Pages: 1 -->
<!--zoomable 162 -->
<svg id="main" version="1.1" xmlns="http://www.w3.org/2000/svg" xmlns:xlink="http://www.w3.org/1999/xlink" xml:space="preserve" onload="init(evt)">
<style type="text/css"><![CDATA[
.edge:hover path { stroke: red; }
.edge:hover polygon { stroke: red; fill: red; }
]]></style>
<script type="text/javascript"><![CDATA[
var edges = document.getElementsByTagName('g');
if (edges && edges.length) {
  for (var i=0;i<edges.length;i++) {
    if (edges[i].id.substr(0,4)=='edge') {
      edges[i].setAttribute('class','edge');
    }
  }
}
]]></script>
        <defs>
                <circle id="rim" cx="0" cy="0" r="7"/>
                <circle id="rim2" cx="0" cy="0" r="3.5"/>
                <g id="zoomPlus">
                        <use xlink:href="#rim" fill="#404040">
                                <set attributeName="fill" to="#808080" begin="zoomplus.mouseover" end="zoomplus.mouseout"/>
                        </use>
                        <path d="M-4,0h8M0,-4v8" fill="none" stroke="white" stroke-width="1.5" pointer-events="none"/>
                </g>
                <g id="zoomMin">
                        <use xlink:href="#rim" fill="#404040">
                                <set attributeName="fill" to="#808080" begin="zoomminus.mouseover" end="zoomminus.mouseout"/>
                        </use>
                        <path d="M-4,0h8" fill="none" stroke="white" stroke-width="1.5" pointer-events="none"/>
                </g>
                <g id="dirArrow">
                        <path fill="none" stroke="white" stroke-width="1.5" d="M0,-3.0v7 M-2.5,-0.5L0,-3.0L2.5,-0.5"/>
                </g>
               <g id="resetDef">
                       <use xlink:href="#rim2" fill="#404040">
                               <set attributeName="fill" to="#808080" begin="reset.mouseover" end="reset.mouseout"/>
                       </use>
               </g>
        </defs>

<script type="text/javascript">
var viewWidth = 1433;
var viewHeight = 162;
var sectionId = 'dynsection-0';
</script>
<script xlink:href="svgpan.js"/>
<svg id="graph" class="graph">
<g id="viewport">
<title>/mnt/Volume_3/Gentoo/projects/Cplus/SymbolFinder/src/findermainwindow.cpp</title>
<polygon fill="white" stroke="transparent" points="-4,4 -4,-158 1428.5,-158 1428.5,4 -4,4"/>
<!-- Node1 -->
<g id="node1" class="node">
<title>Node1</title>
<g id="a_node1"><a xlink:title=" ">
<polygon fill="#bfbfbf" stroke="black" points="611,-112.5 611,-153.5 757,-153.5 757,-112.5 611,-112.5"/>
<text text-anchor="start" x="619" y="-141.5" font-family="Helvetica,sans-Serif" font-size="10.00">/mnt/Volume_3/Gentoo</text>
<text text-anchor="start" x="619" y="-130.5" font-family="Helvetica,sans-Serif" font-size="10.00">/projects/Cplus/SymbolFinder</text>
<text text-anchor="middle" x="684" y="-119.5" font-family="Helvetica,sans-Serif" font-size="10.00">/src/findermainwindow.cpp</text>
</a>
</g>
</g>
<!-- Node2 -->
<g id="node2" class="node">
<title>Node2</title>
<g id="a_node2"><a xlink:href="findermainwindow_8hpp.html" target="_top" xlink:title=" ">
<polygon fill="white" stroke="black" points="40.5,-56.5 40.5,-75.5 153.5,-75.5 153.5,-56.5 40.5,-56.5"/>
<text text-anchor="middle" x="97" y="-63.5" font-family="Helvetica,sans-Serif" font-size="10.00">findermainwindow.hpp</text>
</a>
</g>
</g>
<!-- Node1&#45;&gt;Node2 -->
<g id="edge1" class="edge">
<title>Node1&#45;&gt;Node2</title>
<path fill="none" stroke="midnightblue" d="M610.87,-124.87C511.9,-115.06 329.57,-96.43 164.08,-76.23"/>
<polygon fill="midnightblue" stroke="midnightblue" points="164.06,-72.7 153.71,-74.96 163.21,-79.65 164.06,-72.7"/>
</g>
<!-- Node6 -->
<g id="node6" class="node">
<title>Node6</title>
<g id="a_node6"><a xlink:title=" ">
<polygon fill="white" stroke="#bfbfbf" points="447,-56.5 447,-75.5 503,-75.5 503,-56.5 447,-56.5"/>
<text text-anchor="middle" x="475" y="-63.5" font-family="Helvetica,sans-Serif" font-size="10.00">qdebug.h</text>
</a>
</g>
</g>
<!-- Node1&#45;&gt;Node6 -->
<g id="edge5" class="edge">
<title>Node1&#45;&gt;Node6</title>
<path fill="none" stroke="midnightblue" d="M621.29,-112.5C585.75,-101.44 542.49,-87.99 512.27,-78.59"/>
<polygon fill="midnightblue" stroke="midnightblue" points="513.13,-75.19 502.55,-75.57 511.06,-81.88 513.13,-75.19"/>
</g>
<!-- Node7 -->
<g id="node7" class="node">
<title>Node7</title>
<g id="a_node7"><a xlink:title=" ">
<polygon fill="white" stroke="#bfbfbf" points="521,-56.5 521,-75.5 607,-75.5 607,-56.5 521,-56.5"/>
<text text-anchor="middle" x="564" y="-63.5" font-family="Helvetica,sans-Serif" font-size="10.00">qmessagebox.h</text>
</a>
</g>
</g>
<!-- Node1&#45;&gt;Node7 -->
<g id="edge6" class="edge">
<title>Node1&#45;&gt;Node7</title>
<path fill="none" stroke="midnightblue" d="M648,-112.5C628.89,-102.15 605.9,-89.69 588.8,-80.43"/>
<polygon fill="midnightblue" stroke="midnightblue" points="590.43,-77.34 579.97,-75.65 587.1,-83.49 590.43,-77.34"/>
</g>
<!-- Node8 -->
<g id="node8" class="node">
<title>Node8</title>
<g id="a_node8"><a xlink:title=" ">
<polygon fill="white" stroke="#bfbfbf" points="625,-56.5 625,-75.5 677,-75.5 677,-56.5 625,-56.5"/>
<text text-anchor="middle" x="651" y="-63.5" font-family="Helvetica,sans-Serif" font-size="10.00">qtimer.h</text>
</a>
</g>
</g>
<!-- Node1&#45;&gt;Node8 -->
<g id="edge7" class="edge">
<title>Node1&#45;&gt;Node8</title>
<path fill="none" stroke="midnightblue" d="M674.1,-112.5C669.62,-103.68 664.37,-93.34 660.01,-84.74"/>
<polygon fill="midnightblue" stroke="midnightblue" points="663.04,-82.98 655.39,-75.65 656.8,-86.15 663.04,-82.98"/>
</g>
<!-- Node9 -->
<g id="node9" class="node">
<title>Node9</title>
<g id="a_node9"><a xlink:title=" ">
<polygon fill="white" stroke="#bfbfbf" points="695,-56.5 695,-75.5 741,-75.5 741,-56.5 695,-56.5"/>
<text text-anchor="middle" x="718" y="-63.5" font-family="Helvetica,sans-Serif" font-size="10.00">chrono</text>
</a>
</g>
</g>
<!-- Node1&#45;&gt;Node9 -->
<g id="edge8" class="edge">
<title>Node1&#45;&gt;Node9</title>
<path fill="none" stroke="midnightblue" d="M694.2,-112.5C698.81,-103.68 704.22,-93.34 708.72,-84.74"/>
<polygon fill="midnightblue" stroke="midnightblue" points="711.94,-86.14 713.47,-75.65 705.74,-82.89 711.94,-86.14"/>
</g>
<!-- Node10 -->
<g id="node10" class="node">
<title>Node10</title>
<g id="a_node10"><a xlink:title=" ">
<polygon fill="white" stroke="#bfbfbf" points="759.5,-56.5 759.5,-75.5 818.5,-75.5 818.5,-56.5 759.5,-56.5"/>
<text text-anchor="middle" x="789" y="-63.5" font-family="Helvetica,sans-Serif" font-size="10.00">functional</text>
</a>
</g>
</g>
<!-- Node1&#45;&gt;Node10 -->
<g id="edge9" class="edge">
<title>Node1&#45;&gt;Node10</title>
<path fill="none" stroke="midnightblue" d="M715.5,-112.5C731.91,-102.34 751.6,-90.16 766.46,-80.95"/>
<polygon fill="midnightblue" stroke="midnightblue" points="768.36,-83.89 775.02,-75.65 764.68,-77.94 768.36,-83.89"/>
</g>
<!-- Node11 -->
<g id="node11" class="node">
<title>Node11</title>
<g id="a_node11"><a xlink:href="connectverifier_8hpp.html" target="_top" xlink:title=" ">
<polygon fill="white" stroke="black" points="836.5,-56.5 836.5,-75.5 1005.5,-75.5 1005.5,-56.5 836.5,-56.5"/>
<text text-anchor="middle" x="921" y="-63.5" font-family="Helvetica,sans-Serif" font-size="10.00">ConnectVerifier/connectverifier.hpp</text>
</a>
</g>
</g>
<!-- Node1&#45;&gt;Node11 -->
<g id="edge10" class="edge">
<title>Node1&#45;&gt;Node11</title>
<path fill="none" stroke="midnightblue" d="M755.11,-112.5C795.94,-101.3 845.75,-87.64 880.07,-78.22"/>
<polygon fill="midnightblue" stroke="midnightblue" points="881.05,-81.59 889.76,-75.57 879.19,-74.84 881.05,-81.59"/>
</g>
<!-- Node12 -->
<g id="node12" class="node">
<title>Node12</title>
<g id="a_node12"><a xlink:href="argumentslineedit_8hpp.html" target="_top" xlink:title=" ">
<polygon fill="white" stroke="black" points="1023.5,-56.5 1023.5,-75.5 1200.5,-75.5 1200.5,-56.5 1023.5,-56.5"/>
<text text-anchor="middle" x="1112" y="-63.5" font-family="Helvetica,sans-Serif" font-size="10.00">DriverWidgets/argumentslineedit.hpp</text>
</a>
</g>
</g>
<!-- Node1&#45;&gt;Node12 -->
<g id="edge11" class="edge">
<title>Node1&#45;&gt;Node12</title>
<path fill="none" stroke="midnightblue" d="M757.09,-120.9C838.09,-108.6 967.58,-88.93 1045.73,-77.06"/>
<polygon fill="midnightblue" stroke="midnightblue" points="1046.58,-80.48 1055.94,-75.51 1045.52,-73.56 1046.58,-80.48"/>
</g>
<!-- Node14 -->
<g id="node14" class="node">
<title>Node14</title>
<g id="a_node14"><a xlink:href="messagewidget_8hpp.html" target="_top" xlink:title=" ">
<polygon fill="white" stroke="black" points="171.5,-56.5 171.5,-75.5 340.5,-75.5 340.5,-56.5 171.5,-56.5"/>
<text text-anchor="middle" x="256" y="-63.5" font-family="Helvetica,sans-Serif" font-size="10.00">DriverWidgets/messagewidget.hpp</text>
</a>
</g>
</g>
<!-- Node1&#45;&gt;Node14 -->
<g id="edge13" class="edge">
<title>Node1&#45;&gt;Node14</title>
<path fill="none" stroke="midnightblue" d="M610.91,-120.9C529.91,-108.6 400.42,-88.93 322.27,-77.06"/>
<polygon fill="midnightblue" stroke="midnightblue" points="322.48,-73.56 312.06,-75.51 321.42,-80.48 322.48,-73.56"/>
</g>
<!-- Node16 -->
<g id="node16" class="node">
<title>Node16</title>
<g id="a_node16"><a xlink:href="nmdriver_8hpp.html" target="_top" xlink:title=" ">
<polygon fill="white" stroke="black" points="1218.5,-56.5 1218.5,-75.5 1291.5,-75.5 1291.5,-56.5 1218.5,-56.5"/>
<text text-anchor="middle" x="1255" y="-63.5" font-family="Helvetica,sans-Serif" font-size="10.00">nmdriver.hpp</text>
</a>
</g>
</g>
<!-- Node1&#45;&gt;Node16 -->
<g id="edge16" class="edge">
<title>Node1&#45;&gt;Node16</title>
<path fill="none" stroke="midnightblue" d="M757.3,-126.21C857.03,-117.87 1041.2,-100.88 1208.42,-75.96"/>
<polygon fill="midnightblue" stroke="midnightblue" points="1209.02,-79.41 1218.39,-74.46 1207.98,-72.49 1209.02,-79.41"/>
</g>
<!-- Node19 -->
<g id="node18" class="node">
<title>Node19</title>
<g id="a_node18"><a xlink:href="scanner_8hpp.html" target="_top" xlink:title=" ">
<polygon fill="white" stroke="black" points="359,-56.5 359,-75.5 429,-75.5 429,-56.5 359,-56.5"/>
<text text-anchor="middle" x="394" y="-63.5" font-family="Helvetica,sans-Serif" font-size="10.00">scanner.hpp</text>
</a>
</g>
</g>
<!-- Node1&#45;&gt;Node19 -->
<g id="edge18" class="edge">
<title>Node1&#45;&gt;Node19</title>
<path fill="none" stroke="midnightblue" d="M610.82,-115.6C556.85,-103.5 485.11,-87.42 439.23,-77.14"/>
<polygon fill="midnightblue" stroke="midnightblue" points="439.81,-73.68 429.29,-74.91 438.28,-80.51 439.81,-73.68"/>
</g>
<!-- Node21 -->
<g id="node20" class="node">
<title>Node21</title>
<g id="a_node20"><a xlink:title=" ">
<polygon fill="white" stroke="#bfbfbf" points="1309.5,-56.5 1309.5,-75.5 1424.5,-75.5 1424.5,-56.5 1309.5,-56.5"/>
<text text-anchor="middle" x="1367" y="-63.5" font-family="Helvetica,sans-Serif" font-size="10.00">ui_findermainwindow.h</text>
</a>
</g>
</g>
<!-- Node1&#45;&gt;Node21 -->
<g id="edge21" class="edge">
<title>Node1&#45;&gt;Node21</title>
<path fill="none" stroke="midnightblue" d="M757.24,-126.43C870.99,-117.53 1097.22,-98.89 1299.22,-76.16"/>
<polygon fill="midnightblue" stroke="midnightblue" points="1299.88,-79.61 1309.43,-75.01 1299.1,-72.65 1299.88,-79.61"/>
</g>
<!-- Node3 -->
<g id="node3" class="node">
<title>Node3</title>
<g id="a_node3"><a xlink:title=" ">
<polygon fill="white" stroke="#bfbfbf" points="70,-0.5 70,-19.5 150,-19.5 150,-0.5 70,-0.5"/>
<text text-anchor="middle" x="110" y="-7.5" font-family="Helvetica,sans-Serif" font-size="10.00">QMainWindow</text>
</a>
</g>
</g>
<!-- Node2&#45;&gt;Node3 -->
<g id="edge2" class="edge">
<title>Node2&#45;&gt;Node3</title>
<path fill="none" stroke="midnightblue" d="M99.15,-56.08C100.87,-48.93 103.35,-38.64 105.5,-29.69"/>
<polygon fill="midnightblue" stroke="midnightblue" points="108.96,-30.29 107.89,-19.75 102.15,-28.65 108.96,-30.29"/>
</g>
<!-- Node4 -->
<g id="node4" class="node">
<title>Node4</title>
<g id="a_node4"><a xlink:title=" ">
<polygon fill="white" stroke="#bfbfbf" points="267.5,-0.5 267.5,-19.5 334.5,-19.5 334.5,-0.5 267.5,-0.5"/>
<text text-anchor="middle" x="301" y="-7.5" font-family="Helvetica,sans-Serif" font-size="10.00">gsl/pointers</text>
</a>
</g>
</g>
<!-- Node2&#45;&gt;Node4 -->
<g id="edge3" class="edge">
<title>Node2&#45;&gt;Node4</title>
<path fill="none" stroke="midnightblue" d="M129.32,-56.44C164.39,-47.16 220.5,-32.31 258.96,-22.13"/>
<polygon fill="midnightblue" stroke="midnightblue" points="260.06,-25.46 268.83,-19.52 258.26,-18.69 260.06,-25.46"/>
</g>
<!-- Node5 -->
<g id="node5" class="node">
<title>Node5</title>
<g id="a_node5"><a xlink:title=" ">
<polygon fill="white" stroke="#bfbfbf" points="0,-0.5 0,-19.5 52,-19.5 52,-0.5 0,-0.5"/>
<text text-anchor="middle" x="26" y="-7.5" font-family="Helvetica,sans-Serif" font-size="10.00">memory</text>
</a>
</g>
</g>
<!-- Node2&#45;&gt;Node5 -->
<g id="edge4" class="edge">
<title>Node2&#45;&gt;Node5</title>
<path fill="none" stroke="midnightblue" d="M85.59,-56.32C74.89,-48.18 58.66,-35.84 45.84,-26.09"/>
<polygon fill="midnightblue" stroke="midnightblue" points="47.69,-23.1 37.61,-19.83 43.46,-28.67 47.69,-23.1"/>
</g>
<!-- Node13 -->
<g id="node13" class="node">
<title>Node13</title>
<g id="a_node13"><a xlink:title=" ">
<polygon fill="white" stroke="#bfbfbf" points="1081.5,-0.5 1081.5,-19.5 1142.5,-19.5 1142.5,-0.5 1081.5,-0.5"/>
<text text-anchor="middle" x="1112" y="-7.5" font-family="Helvetica,sans-Serif" font-size="10.00">qlineedit.h</text>
</a>
</g>
</g>
<!-- Node12&#45;&gt;Node13 -->
<g id="edge12" class="edge">
<title>Node12&#45;&gt;Node13</title>
<path fill="none" stroke="midnightblue" d="M1112,-56.08C1112,-49.01 1112,-38.86 1112,-29.99"/>
<polygon fill="midnightblue" stroke="midnightblue" points="1115.5,-29.75 1112,-19.75 1108.5,-29.75 1115.5,-29.75"/>
</g>
<!-- Node14&#45;&gt;Node4 -->
<g id="edge15" class="edge">
<title>Node14&#45;&gt;Node4</title>
<path fill="none" stroke="midnightblue" d="M263.43,-56.08C269.85,-48.38 279.31,-37.03 287.12,-27.65"/>
<polygon fill="midnightblue" stroke="midnightblue" points="289.99,-29.67 293.71,-19.75 284.62,-25.19 289.99,-29.67"/>
</g>
<!-- Node15 -->
<g id="node15" class="node">
<title>Node15</title>
<g id="a_node15"><a xlink:title=" ">
<polygon fill="white" stroke="#bfbfbf" points="194.5,-0.5 194.5,-19.5 249.5,-19.5 249.5,-0.5 194.5,-0.5"/>
<text text-anchor="middle" x="222" y="-7.5" font-family="Helvetica,sans-Serif" font-size="10.00">qframe.h</text>
</a>
</g>
</g>
<!-- Node14&#45;&gt;Node15 -->
<g id="edge14" class="edge">
<title>Node14&#45;&gt;Node15</title>
<path fill="none" stroke="midnightblue" d="M250.39,-56.08C245.63,-48.53 238.68,-37.49 232.85,-28.23"/>
<polygon fill="midnightblue" stroke="midnightblue" points="235.8,-26.35 227.51,-19.75 229.88,-30.08 235.8,-26.35"/>
</g>
<!-- Node17 -->
<g id="node17" class="node">
<title>Node17</title>
<g id="a_node17"><a xlink:href="idriver_8hpp.html" target="_top" xlink:title=" ">
<polygon fill="white" stroke="red" points="1224,-0.5 1224,-19.5 1286,-19.5 1286,-0.5 1224,-0.5"/>
<text text-anchor="middle" x="1255" y="-7.5" font-family="Helvetica,sans-Serif" font-size="10.00">idriver.hpp</text>
</a>
</g>
</g>
<!-- Node16&#45;&gt;Node17 -->
<g id="edge17" class="edge">
<title>Node16&#45;&gt;Node17</title>
<path fill="none" stroke="midnightblue" d="M1255,-56.08C1255,-49.01 1255,-38.86 1255,-29.99"/>
<polygon fill="midnightblue" stroke="midnightblue" points="1258.5,-29.75 1255,-19.75 1251.5,-29.75 1258.5,-29.75"/>
</g>
<!-- Node19&#45;&gt;Node4 -->
<g id="edge20" class="edge">
<title>Node19&#45;&gt;Node4</title>
<path fill="none" stroke="midnightblue" d="M379.06,-56.32C364.41,-47.82 341.87,-34.73 324.76,-24.8"/>
<polygon fill="midnightblue" stroke="midnightblue" points="326.31,-21.65 315.9,-19.65 322.8,-27.7 326.31,-21.65"/>
</g>
<!-- Node20 -->
<g id="node19" class="node">
<title>Node20</title>
<g id="a_node19"><a xlink:title=" ">
<polygon fill="white" stroke="#bfbfbf" points="366,-0.5 366,-19.5 422,-19.5 422,-0.5 366,-0.5"/>
<text text-anchor="middle" x="394" y="-7.5" font-family="Helvetica,sans-Serif" font-size="10.00">qobject.h</text>
</a>
</g>
</g>
<!-- Node19&#45;&gt;Node20 -->
<g id="edge19" class="edge">
<title>Node19&#45;&gt;Node20</title>
<path fill="none" stroke="midnightblue" d="M394,-56.08C394,-49.01 394,-38.86 394,-29.99"/>
<polygon fill="midnightblue" stroke="midnightblue" points="397.5,-29.75 394,-19.75 390.5,-29.75 397.5,-29.75"/>
</g>
</g>
</svg>
        <g id="navigator" transform="translate(0 0)" fill="#404254">
                <rect fill="#f2f5e9" fill-opacity="0.5" stroke="#606060" stroke-width=".5" x="0" y="0" width="60" height="60"/>
                <use id="zoomplus" xlink:href="#zoomPlus" x="17" y="9" onmousedown="handleZoom(evt,'in')"/>
                <use id="zoomminus" xlink:href="#zoomMin" x="42" y="9" onmousedown="handleZoom(evt,'out')"/>
                <use id="reset" xlink:href="#resetDef" x="30" y="36" onmousedown="handleReset()"/>
                <g id="arrowUp" xlink:href="#dirArrow" transform="translate(30 24)" onmousedown="handlePan(0,-1)">
                  <use xlink:href="#rim" fill="#404040">
                        <set attributeName="fill" to="#808080" begin="arrowUp.mouseover" end="arrowUp.mouseout"/>
                  </use>
                  <path fill="none" stroke="white" stroke-width="1.5" d="M0,-3.0v7 M-2.5,-0.5L0,-3.0L2.5,-0.5"/>
                </g>
                <g id="arrowRight" xlink:href="#dirArrow" transform="rotate(90) translate(36 -43)" onmousedown="handlePan(1,0)">
                  <use xlink:href="#rim" fill="#404040">
                        <set attributeName="fill" to="#808080" begin="arrowRight.mouseover" end="arrowRight.mouseout"/>
                  </use>
                  <path fill="none" stroke="white" stroke-width="1.5" d="M0,-3.0v7 M-2.5,-0.5L0,-3.0L2.5,-0.5"/>
                </g>
                <g id="arrowDown" xlink:href="#dirArrow" transform="rotate(180) translate(-30 -48)" onmousedown="handlePan(0,1)">
                  <use xlink:href="#rim" fill="#404040">
                        <set attributeName="fill" to="#808080" begin="arrowDown.mouseover" end="arrowDown.mouseout"/>
                  </use>
                  <path fill="none" stroke="white" stroke-width="1.5" d="M0,-3.0v7 M-2.5,-0.5L0,-3.0L2.5,-0.5"/>
                </g>
                <g id="arrowLeft" xlink:href="#dirArrow" transform="rotate(270) translate(-36 17)" onmousedown="handlePan(-1,0)">
                  <use xlink:href="#rim" fill="#404040">
                        <set attributeName="fill" to="#808080" begin="arrowLeft.mouseover" end="arrowLeft.mouseout"/>
                  </use>
                  <path fill="none" stroke="white" stroke-width="1.5" d="M0,-3.0v7 M-2.5,-0.5L0,-3.0L2.5,-0.5"/>
                </g>
        </g>
        <svg viewBox="0 0 15 15" width="100%" height="30px" preserveAspectRatio="xMaxYMin meet">
         <g id="arrow_out" transform="scale(0.3 0.3)">
          <a xlink:href="findermainwindow_8cpp__incl_org.svg" target="_base">
           <rect id="button" ry="5" rx="5" y="6" x="6" height="38" width="38"
                fill="#f2f5e9" fill-opacity="0.5" stroke="#606060" stroke-width="1.0"/>
           <path id="arrow"
             d="M 11.500037,31.436501 C 11.940474,20.09759 22.043105,11.32322 32.158766,21.979434 L 37.068811,17.246167 C 37.068811,17.246167 37.088388,32 37.088388,32 L 22.160133,31.978069 C 22.160133,31.978069 26.997745,27.140456 26.997745,27.140456 C 18.528582,18.264221 13.291696,25.230495 11.500037,31.436501 z"
             style="fill:#404040;"/>
          </a>
         </g>
        </svg>
</svg>
