<?xml version="1.0" encoding="UTF-8" standalone="no"?>
<!DOCTYPE svg PUBLIC "-//W3C//DTD SVG 1.1//EN"
 "http://www.w3.org/Graphics/SVG/1.1/DTD/svg11.dtd">
<!-- Generated by graphviz version 2.49.0 (20210828.1703)
 -->
<!-- Title: /mnt/Volume_3/Gentoo/projects/Cplus/SymbolFinder/src/findermainwindow.hpp Pages: 1 -->
<svg width="244pt" height="106pt"
 viewBox="0.00 0.00 244.00 106.00" xmlns="http://www.w3.org/2000/svg" xmlns:xlink="http://www.w3.org/1999/xlink">
<g id="graph0" class="graph" transform="scale(1 1) rotate(0) translate(4 102)">
<title>/mnt/Volume_3/Gentoo/projects/Cplus/SymbolFinder/src/findermainwindow.hpp</title>
<polygon fill="white" stroke="transparent" points="-4,4 -4,-102 240,-102 240,4 -4,4"/>
<!-- Node1 -->
<g id="node1" class="node">
<title>Node1</title>
<g id="a_node1"><a xlink:title=" ">
<polygon fill="#bfbfbf" stroke="black" points="59,-56.5 59,-97.5 205,-97.5 205,-56.5 59,-56.5"/>
<text text-anchor="start" x="67" y="-85.5" font-family="Helvetica,sans-Serif" font-size="10.00">/mnt/Volume_3/Gentoo</text>
<text text-anchor="start" x="67" y="-74.5" font-family="Helvetica,sans-Serif" font-size="10.00">/projects/Cplus/SymbolFinder</text>
<text text-anchor="middle" x="132" y="-63.5" font-family="Helvetica,sans-Serif" font-size="10.00">/src/findermainwindow.hpp</text>
</a>
</g>
</g>
<!-- Node2 -->
<g id="node2" class="node">
<title>Node2</title>
<g id="a_node2"><a xlink:title=" ">
<polygon fill="white" stroke="#bfbfbf" points="0,-0.5 0,-19.5 80,-19.5 80,-0.5 0,-0.5"/>
<text text-anchor="middle" x="40" y="-7.5" font-family="Helvetica,sans-Serif" font-size="10.00">QMainWindow</text>
</a>
</g>
</g>
<!-- Node1&#45;&gt;Node2 -->
<g id="edge1" class="edge">
<title>Node1&#45;&gt;Node2</title>
<path fill="none" stroke="midnightblue" d="M104.4,-56.5C90.29,-46.53 73.42,-34.61 60.49,-25.48"/>
<polygon fill="midnightblue" stroke="midnightblue" points="62.43,-22.56 52.25,-19.65 58.39,-28.28 62.43,-22.56"/>
</g>
<!-- Node3 -->
<g id="node3" class="node">
<title>Node3</title>
<g id="a_node3"><a xlink:title=" ">
<polygon fill="white" stroke="#bfbfbf" points="98.5,-0.5 98.5,-19.5 165.5,-19.5 165.5,-0.5 98.5,-0.5"/>
<text text-anchor="middle" x="132" y="-7.5" font-family="Helvetica,sans-Serif" font-size="10.00">gsl/pointers</text>
</a>
</g>
</g>
<!-- Node1&#45;&gt;Node3 -->
<g id="edge2" class="edge">
<title>Node1&#45;&gt;Node3</title>
<path fill="none" stroke="midnightblue" d="M132,-56.5C132,-48.07 132,-38.24 132,-29.87"/>
<polygon fill="midnightblue" stroke="midnightblue" points="135.5,-29.65 132,-19.65 128.5,-29.65 135.5,-29.65"/>
</g>
<!-- Node4 -->
<g id="node4" class="node">
<title>Node4</title>
<g id="a_node4"><a xlink:title=" ">
<polygon fill="white" stroke="#bfbfbf" points="184,-0.5 184,-19.5 236,-19.5 236,-0.5 184,-0.5"/>
<text text-anchor="middle" x="210" y="-7.5" font-family="Helvetica,sans-Serif" font-size="10.00">memory</text>
</a>
</g>
</g>
<!-- Node1&#45;&gt;Node4 -->
<g id="edge3" class="edge">
<title>Node1&#45;&gt;Node4</title>
<path fill="none" stroke="midnightblue" d="M155.4,-56.5C167.02,-46.82 180.84,-35.3 191.67,-26.27"/>
<polygon fill="midnightblue" stroke="midnightblue" points="194.18,-28.74 199.62,-19.65 189.69,-23.37 194.18,-28.74"/>
</g>
</g>
</svg>
