<?xml version="1.0" encoding="UTF-8" standalone="no"?>
<!DOCTYPE svg PUBLIC "-//W3C//DTD SVG 1.1//EN"
 "http://www.w3.org/Graphics/SVG/1.1/DTD/svg11.dtd">
<!-- Generated by graphviz version 2.49.0 (20210828.1703)
 -->
<!-- Title: /mnt/Volume_3/Gentoo/projects/Cplus/SymbolFinder/src/idriver.hpp Pages: 1 -->
<svg width="567pt" height="206pt"
 viewBox="0.00 0.00 567.00 206.00" xmlns="http://www.w3.org/2000/svg" xmlns:xlink="http://www.w3.org/1999/xlink">
<g id="graph0" class="graph" transform="scale(1 1) rotate(0) translate(4 202)">
<title>/mnt/Volume_3/Gentoo/projects/Cplus/SymbolFinder/src/idriver.hpp</title>
<polygon fill="white" stroke="transparent" points="-4,4 -4,-202 563,-202 563,4 -4,4"/>
<!-- Node1 -->
<g id="node1" class="node">
<title>Node1</title>
<g id="a_node1"><a xlink:title=" ">
<polygon fill="#bfbfbf" stroke="black" points="312,-156.5 312,-197.5 458,-197.5 458,-156.5 312,-156.5"/>
<text text-anchor="start" x="320" y="-185.5" font-family="Helvetica,sans-Serif" font-size="10.00">/mnt/Volume_3/Gentoo</text>
<text text-anchor="start" x="320" y="-174.5" font-family="Helvetica,sans-Serif" font-size="10.00">/projects/Cplus/SymbolFinder</text>
<text text-anchor="middle" x="385" y="-163.5" font-family="Helvetica,sans-Serif" font-size="10.00">/src/idriver.hpp</text>
</a>
</g>
</g>
<!-- Node2 -->
<g id="node2" class="node">
<title>Node2</title>
<g id="a_node2"><a xlink:href="nmdriver_8hpp.html" target="_top" xlink:title=" ">
<polygon fill="white" stroke="black" points="180,-78.5 180,-119.5 326,-119.5 326,-78.5 180,-78.5"/>
<text text-anchor="start" x="188" y="-107.5" font-family="Helvetica,sans-Serif" font-size="10.00">/mnt/Volume_3/Gentoo</text>
<text text-anchor="start" x="188" y="-96.5" font-family="Helvetica,sans-Serif" font-size="10.00">/projects/Cplus/SymbolFinder</text>
<text text-anchor="middle" x="253" y="-85.5" font-family="Helvetica,sans-Serif" font-size="10.00">/src/nmdriver.hpp</text>
</a>
</g>
</g>
<!-- Node1&#45;&gt;Node2 -->
<g id="edge1" class="edge">
<title>Node1&#45;&gt;Node2</title>
<path fill="none" stroke="midnightblue" d="M341.93,-151.2C324.07,-140.92 303.64,-129.16 286.88,-119.51"/>
<polygon fill="midnightblue" stroke="midnightblue" points="340.59,-154.47 351.01,-156.43 344.09,-148.41 340.59,-154.47"/>
</g>
<!-- Node5 -->
<g id="node5" class="node">
<title>Node5</title>
<g id="a_node5"><a xlink:href="scanner_8cpp.html" target="_top" xlink:title=" ">
<polygon fill="white" stroke="black" points="328,-0.5 328,-41.5 474,-41.5 474,-0.5 328,-0.5"/>
<text text-anchor="start" x="336" y="-29.5" font-family="Helvetica,sans-Serif" font-size="10.00">/mnt/Volume_3/Gentoo</text>
<text text-anchor="start" x="336" y="-18.5" font-family="Helvetica,sans-Serif" font-size="10.00">/projects/Cplus/SymbolFinder</text>
<text text-anchor="middle" x="401" y="-7.5" font-family="Helvetica,sans-Serif" font-size="10.00">/src/scanner.cpp</text>
</a>
</g>
</g>
<!-- Node1&#45;&gt;Node5 -->
<g id="edge6" class="edge">
<title>Node1&#45;&gt;Node5</title>
<path fill="none" stroke="midnightblue" d="M388.08,-146.36C391.27,-115.61 396.18,-68.36 398.94,-41.83"/>
<polygon fill="midnightblue" stroke="midnightblue" points="384.58,-146.19 387.03,-156.5 391.54,-146.91 384.58,-146.19"/>
</g>
<!-- Node6 -->
<g id="node6" class="node">
<title>Node6</title>
<g id="a_node6"><a xlink:href="idriver_8cpp.html" target="_top" xlink:title=" ">
<polygon fill="white" stroke="black" points="413,-78.5 413,-119.5 559,-119.5 559,-78.5 413,-78.5"/>
<text text-anchor="start" x="421" y="-107.5" font-family="Helvetica,sans-Serif" font-size="10.00">/mnt/Volume_3/Gentoo</text>
<text text-anchor="start" x="421" y="-96.5" font-family="Helvetica,sans-Serif" font-size="10.00">/projects/Cplus/SymbolFinder</text>
<text text-anchor="middle" x="486" y="-85.5" font-family="Helvetica,sans-Serif" font-size="10.00">/src/idriver.cpp</text>
</a>
</g>
</g>
<!-- Node1&#45;&gt;Node6 -->
<g id="edge5" class="edge">
<title>Node1&#45;&gt;Node6</title>
<path fill="none" stroke="midnightblue" d="M419.09,-150.35C432.48,-140.27 447.6,-128.89 460.08,-119.51"/>
<polygon fill="midnightblue" stroke="midnightblue" points="416.9,-147.62 411.01,-156.43 421.1,-153.21 416.9,-147.62"/>
</g>
<!-- Node3 -->
<g id="node3" class="node">
<title>Node3</title>
<g id="a_node3"><a xlink:href="findermainwindow_8cpp.html" target="_top" xlink:title=" ">
<polygon fill="white" stroke="black" points="0,-0.5 0,-41.5 146,-41.5 146,-0.5 0,-0.5"/>
<text text-anchor="start" x="8" y="-29.5" font-family="Helvetica,sans-Serif" font-size="10.00">/mnt/Volume_3/Gentoo</text>
<text text-anchor="start" x="8" y="-18.5" font-family="Helvetica,sans-Serif" font-size="10.00">/projects/Cplus/SymbolFinder</text>
<text text-anchor="middle" x="73" y="-7.5" font-family="Helvetica,sans-Serif" font-size="10.00">/src/findermainwindow.cpp</text>
</a>
</g>
</g>
<!-- Node2&#45;&gt;Node3 -->
<g id="edge2" class="edge">
<title>Node2&#45;&gt;Node3</title>
<path fill="none" stroke="midnightblue" d="M197.27,-74.47C172.22,-63.89 143,-51.56 119.2,-41.51"/>
<polygon fill="midnightblue" stroke="midnightblue" points="196.07,-77.76 206.65,-78.43 198.79,-71.31 196.07,-77.76"/>
</g>
<!-- Node4 -->
<g id="node4" class="node">
<title>Node4</title>
<g id="a_node4"><a xlink:href="nmdriver_8cpp.html" target="_top" xlink:title=" ">
<polygon fill="white" stroke="black" points="164,-0.5 164,-41.5 310,-41.5 310,-0.5 164,-0.5"/>
<text text-anchor="start" x="172" y="-29.5" font-family="Helvetica,sans-Serif" font-size="10.00">/mnt/Volume_3/Gentoo</text>
<text text-anchor="start" x="172" y="-18.5" font-family="Helvetica,sans-Serif" font-size="10.00">/projects/Cplus/SymbolFinder</text>
<text text-anchor="middle" x="237" y="-7.5" font-family="Helvetica,sans-Serif" font-size="10.00">/src/nmdriver.cpp</text>
</a>
</g>
</g>
<!-- Node2&#45;&gt;Node4 -->
<g id="edge3" class="edge">
<title>Node2&#45;&gt;Node4</title>
<path fill="none" stroke="midnightblue" d="M246.81,-68.59C244.9,-59.51 242.84,-49.74 241.11,-41.51"/>
<polygon fill="midnightblue" stroke="midnightblue" points="243.39,-69.36 248.88,-78.43 250.24,-67.92 243.39,-69.36"/>
</g>
<!-- Node2&#45;&gt;Node5 -->
<g id="edge4" class="edge">
<title>Node2&#45;&gt;Node5</title>
<path fill="none" stroke="midnightblue" d="M300.19,-73.77C320.48,-63.35 343.87,-51.34 363.02,-41.51"/>
<polygon fill="midnightblue" stroke="midnightblue" points="298.41,-70.75 291.11,-78.43 301.61,-76.97 298.41,-70.75"/>
</g>
</g>
</svg>
