<?xml version="1.0" encoding="UTF-8" standalone="no"?>
<!DOCTYPE svg PUBLIC "-//W3C//DTD SVG 1.1//EN"
 "http://www.w3.org/Graphics/SVG/1.1/DTD/svg11.dtd">
<!-- Generated by graphviz version 2.49.0 (20210828.1703)
 -->
<!-- Title: Graphical Class Hierarchy Pages: 1 -->
<svg width="245pt" height="28pt"
 viewBox="0.00 0.00 245.00 28.00" xmlns="http://www.w3.org/2000/svg" xmlns:xlink="http://www.w3.org/1999/xlink">
<g id="graph0" class="graph" transform="scale(1 1) rotate(0) translate(4 24)">
<title>Graphical Class Hierarchy</title>
<polygon fill="white" stroke="transparent" points="-4,4 -4,-24 241,-24 241,4 -4,4"/>
<!-- Node10 -->
<g id="node1" class="node">
<title>Node10</title>
<g id="a_node1"><a xlink:title=" ">
<polygon fill="white" stroke="#bfbfbf" points="0,-0.5 0,-19.5 60,-19.5 60,-0.5 0,-0.5"/>
<text text-anchor="middle" x="30" y="-7.5" font-family="Helvetica,sans-Serif" font-size="10.00">QProcess</text>
</a>
</g>
</g>
<!-- Node0 -->
<g id="node2" class="node">
<title>Node0</title>
<g id="a_node2"><a xlink:href="class_i_driver.html" target="_top" xlink:title="IDriver serves as an interface for NmDriver and ScanelfDriver">
<polygon fill="white" stroke="black" points="96,-0.5 96,-19.5 142,-19.5 142,-0.5 96,-0.5"/>
<text text-anchor="middle" x="119" y="-7.5" font-family="Helvetica,sans-Serif" font-size="10.00">IDriver</text>
</a>
</g>
</g>
<!-- Node10&#45;&gt;Node0 -->
<g id="edge1" class="edge">
<title>Node10&#45;&gt;Node0</title>
<path fill="none" stroke="midnightblue" d="M70.74,-10C79.32,-10 88.1,-10 95.73,-10"/>
<polygon fill="midnightblue" stroke="midnightblue" points="70.45,-6.5 60.45,-10 70.45,-13.5 70.45,-6.5"/>
</g>
<!-- Node1 -->
<g id="node3" class="node">
<title>Node1</title>
<g id="a_node3"><a xlink:href="class_nm_driver.html" target="_top" xlink:title="NmDriver inherits from IDriver and acts as a driver for /usr/bin/nm.">
<polygon fill="white" stroke="black" points="178,-0.5 178,-19.5 237,-19.5 237,-0.5 178,-0.5"/>
<text text-anchor="middle" x="207.5" y="-7.5" font-family="Helvetica,sans-Serif" font-size="10.00">NmDriver</text>
</a>
</g>
</g>
<!-- Node0&#45;&gt;Node1 -->
<g id="edge2" class="edge">
<title>Node0&#45;&gt;Node1</title>
<path fill="none" stroke="midnightblue" d="M152.41,-10C160.74,-10 169.64,-10 177.76,-10"/>
<polygon fill="midnightblue" stroke="midnightblue" points="152.28,-6.5 142.28,-10 152.28,-13.5 152.28,-6.5"/>
</g>
</g>
</svg>
