<?xml version="1.0" encoding="UTF-8" standalone="no"?>
<!DOCTYPE svg PUBLIC "-//W3C//DTD SVG 1.1//EN"
 "http://www.w3.org/Graphics/SVG/1.1/DTD/svg11.dtd">
<!-- Generated by graphviz version 2.49.0 (20210828.1703)
 -->
<!-- Title: /mnt/Volume_3/Gentoo/projects/Cplus/SymbolFinder/src/DriverWidgets/messagewidget.hpp Pages: 1 -->
<svg width="360pt" height="128pt"
 viewBox="0.00 0.00 360.00 128.00" xmlns="http://www.w3.org/2000/svg" xmlns:xlink="http://www.w3.org/1999/xlink">
<g id="graph0" class="graph" transform="scale(1 1) rotate(0) translate(4 124)">
<title>/mnt/Volume_3/Gentoo/projects/Cplus/SymbolFinder/src/DriverWidgets/messagewidget.hpp</title>
<polygon fill="white" stroke="transparent" points="-4,4 -4,-124 356,-124 356,4 -4,4"/>
<!-- Node1 -->
<g id="node1" class="node">
<title>Node1</title>
<g id="a_node1"><a xlink:title=" ">
<polygon fill="#bfbfbf" stroke="black" points="92,-78.5 92,-119.5 280,-119.5 280,-78.5 92,-78.5"/>
<text text-anchor="start" x="100" y="-107.5" font-family="Helvetica,sans-Serif" font-size="10.00">/mnt/Volume_3/Gentoo</text>
<text text-anchor="start" x="100" y="-96.5" font-family="Helvetica,sans-Serif" font-size="10.00">/projects/Cplus/SymbolFinder</text>
<text text-anchor="middle" x="186" y="-85.5" font-family="Helvetica,sans-Serif" font-size="10.00">/src/DriverWidgets/messagewidget.hpp</text>
</a>
</g>
</g>
<!-- Node2 -->
<g id="node2" class="node">
<title>Node2</title>
<g id="a_node2"><a xlink:href="messagewidget_8cpp.html" target="_top" xlink:title=" ">
<polygon fill="white" stroke="black" points="0,-0.5 0,-41.5 188,-41.5 188,-0.5 0,-0.5"/>
<text text-anchor="start" x="8" y="-29.5" font-family="Helvetica,sans-Serif" font-size="10.00">/mnt/Volume_3/Gentoo</text>
<text text-anchor="start" x="8" y="-18.5" font-family="Helvetica,sans-Serif" font-size="10.00">/projects/Cplus/SymbolFinder</text>
<text text-anchor="middle" x="94" y="-7.5" font-family="Helvetica,sans-Serif" font-size="10.00">/src/DriverWidgets/messagewidget.cpp</text>
</a>
</g>
</g>
<!-- Node1&#45;&gt;Node2 -->
<g id="edge1" class="edge">
<title>Node1&#45;&gt;Node2</title>
<path fill="none" stroke="midnightblue" d="M154.26,-71.78C142.23,-61.84 128.76,-50.72 117.61,-41.51"/>
<polygon fill="midnightblue" stroke="midnightblue" points="152.37,-74.76 162.31,-78.43 156.83,-69.36 152.37,-74.76"/>
</g>
<!-- Node3 -->
<g id="node3" class="node">
<title>Node3</title>
<g id="a_node3"><a xlink:href="findermainwindow_8cpp.html" target="_top" xlink:title=" ">
<polygon fill="white" stroke="black" points="206,-0.5 206,-41.5 352,-41.5 352,-0.5 206,-0.5"/>
<text text-anchor="start" x="214" y="-29.5" font-family="Helvetica,sans-Serif" font-size="10.00">/mnt/Volume_3/Gentoo</text>
<text text-anchor="start" x="214" y="-18.5" font-family="Helvetica,sans-Serif" font-size="10.00">/projects/Cplus/SymbolFinder</text>
<text text-anchor="middle" x="279" y="-7.5" font-family="Helvetica,sans-Serif" font-size="10.00">/src/findermainwindow.cpp</text>
</a>
</g>
</g>
<!-- Node1&#45;&gt;Node3 -->
<g id="edge2" class="edge">
<title>Node1&#45;&gt;Node3</title>
<path fill="none" stroke="midnightblue" d="M217.74,-72.06C229.98,-62.06 243.75,-50.8 255.13,-41.51"/>
<polygon fill="midnightblue" stroke="midnightblue" points="215.48,-69.39 209.95,-78.43 219.91,-74.81 215.48,-69.39"/>
</g>
</g>
</svg>
